<?xml version="1.0" standalone="no"?>
<!DOCTYPE svg PUBLIC "-//W3C//DTD SVG 20010904//EN"
 "http://www.w3.org/TR/2001/REC-SVG-20010904/DTD/svg10.dtd">
<svg version="1.0" xmlns="http://www.w3.org/2000/svg"
 width="128.000000pt" height="128.000000pt" viewBox="0 0 128.000000 128.000000"
 preserveAspectRatio="xMidYMid meet">
<metadata>
Created by potrace 1.15, written by Peter Selinger 2001-2017
</metadata>
<g transform="translate(0.000000,128.000000) scale(0.100000,-0.100000)"
fill="#000000" stroke="none">
<path d="M0 875 l0 -406 83 3 82 3 3 82 3 83 74 0 75 0 0 75 0 75 160 0 160 0
0 -75 0 -75 85 0 85 0 0 -160 0 -160 76 0 76 0 -4 158 -3 157 88 3 87 3 0 -86
0 -85 75 0 75 0 0 405 0 405 -640 0 -640 0 0 -405z"/>
<path d="M330 588 c0 -24 -3 -94 -7 -155 l-6 -113 81 0 82 0 0 155 0 155 -75
0 -75 0 0 -42z"/>
</g>
</svg>
